# xmcd CD database file
#
# Track frame offsets:
#	150
#	12000
#	24375
#	37592
#	48295
#	60210
#	72755
#	84937
#	98890
#	111422
#	123775
#	136882
#	146510
#	162405
#	175757
#	188305
#	199247
#	213487
#	224747
#	237952
#	248985
#	261697
#
# Disc length: 3674 seconds
#
# Revision: 5
# Processed by: cddbd v1.5.2PL0 Copyright (c) Steve Scherf et al.
# Submitted via: ACXtractor (MTCDDB.DLL V2003.12.21)
#
DISCID=2d0e5816
DTITLE=Slim Dusty - The Men From Nulla Nulla
DYEAR=2001
DGENRE=Rock
TTITLE0=Slim Dusty and Shorty Ranger - The Men From Nulla Nulla
TTITLE1=Slim Dusty and Shorty Ranger - Riding Through The Valley In Spring
TTITLE2=Slim Dusty and Shorty Ranger - Far Grandest Homestead Of All
TTITLE3=Slim Dusty and Shorty Ranger - Good Old Days
TTITLE4=Slim Dusty - Dry Weather Wind
TTITLE5=Slim Dusty - Easy Goin' Drifter
TTITLE6=Slim Dusty - Willy Willy
TTITLE7=Slim Dusty - Ten Golden Rules
TTITLE8=Slim Dusty - Old Kentucky Rig
TTITLE9=Slim Dusty - Song Of The Macleay
TTITLE10=Slim Dusty - The Old Rusty Bell
TTITLE11=Slim Dusty - Answer To The Old Rusty Bell
TTITLE12=Slim Dusty - Somewhere Up In Queensland
TTITLE13=Slim Dusty - Joy Bells In Your Heart
TTITLE14=Slim Dusty - Heaven Country Style
TTITLE15=Slim Dusty - My Old Aussie Homestead
TTITLE16=Slim Dusty - Ballad Of Port Macquarie
TTITLE17=Slim Dusty - Somebody's Mother
TTITLE18=Slim Dusty - The Paper Boy
TTITLE19=Slim Dusty - Somebody's Mother Tonight
TTITLE20=Slim Dusty - Rose Of Red River Valley
TTITLE21=Slim Dusty - Winter Winds
EXTD=2001 EMI Music Australia ID3G:  17 YEAR: 2001
EXTT0=
EXTT1=
EXTT2=
EXTT3=
EXTT4=
EXTT5=
EXTT6=
EXTT7=
EXTT8=
EXTT9=
EXTT10=
EXTT11=
EXTT12=
EXTT13=
EXTT14=
EXTT15=
EXTT16=
EXTT17=
EXTT18=
EXTT19=
EXTT20=
EXTT21=
PLAYORDER=
